<svg id="Layer_1" data-name="Layer 1" xmlns="http://www.w3.org/2000/svg" width="703.861" height="58.11mm" viewBox="0 0 527.91 164.72"><defs><clipPath id="clip-path"><path fill="none" d="M0 0h527.91v164.72H0z"/></clipPath></defs><g clip-path="url(#clip-path)"><path d="M385 7a13.55 13.55 0 11-18.44-5.23A13.56 13.56 0 01385 7m56.23 32.41a13.55 13.55 0 11-18.44-5.23 13.57 13.57 0 0118.44 5.23" fill="#fff"/><path d="M385.15 71.75a13.55 13.55 0 11-18.44-5.23 13.57 13.57 0 0118.44 5.23" fill="#9bce52"/><path d="M413.19 57a13.55 13.55 0 11-18.44-5.23A13.57 13.57 0 01413.19 57" fill="#fff"/><path d="M413.1 24.31a13.55 13.55 0 11-18.45-5.23 13.58 13.58 0 0118.45 5.23" fill="#9bce52"/><path d="M385.06 39.35a13.55 13.55 0 11-18.44-5.23 13.57 13.57 0 0118.44 5.23M0 150.46l13.16-15.72C21.57 141.44 31 145 40.82 145c6.34 0 9.75-2.2 9.75-5.85v-.25c0-3.53-2.8-5.48-14.38-8.16C18 126.57 4 121.46 4 103.91v-.24c0-15.84 12.55-27.3 33-27.3 14.5 0 25.84 3.9 35.1 11.33l-11.78 16.7C52.52 98.92 44 96 36.43 96c-5.72 0-8.52 2.44-8.52 5.48v.25c0 3.9 2.92 5.6 14.74 8.28 19.62 4.27 31.8 10.6 31.8 26.57v.24c0 17.43-13.77 27.78-34.48 27.78-15.11 0-29.49-4.75-40-14.13m123.71-25.72c-.86-7.31-5.12-11.94-11.46-11.94-6.09 0-10.23 4.75-11.45 11.94zm-44.85 5.72v-.24c0-19.25 13.77-34.48 33.27-34.48 22.79 0 33.27 16.69 33.27 36.07 0 1.46 0 3.16-.13 4.75h-44.11c1.83 7.19 7.07 10.84 14.26 10.84 5.48 0 9.87-2.07 14.62-6.7l12.8 10.6c-6.34 8-15.48 13.41-28.64 13.41-20.72 0-35.34-13.77-35.34-34.25m73.35-33.26h23.15v9.26c4.27-5.48 10.36-10.72 19.75-10.72 14 0 22.42 9.26 22.42 24.25v43.13h-23.16v-35.7c0-7.19-3.77-11.09-9.26-11.09s-9.75 3.9-9.75 11.09v35.7h-23.15zm71.52 33.26v-.24c0-18.64 14.5-34.36 35.34-34.36 13.53 0 22.54 5.85 28.15 14.74l-15.72 11.7c-3.17-4.39-6.7-7-12.31-7-7.43 0-12.91 6.59-12.91 14.63v.24c0 8.53 5.36 15 13.16 15 5.48 0 9-2.56 12.67-6.82l15.47 11.21c-6.09 9-14.86 15.11-29.36 15.11a34 34 0 01-34.49-34.25m109.3-5.68c-.85-7.31-5.12-11.94-11.45-11.94-6.1 0-10.24 4.75-11.46 11.94zm-44.84 5.72v-.24c0-19.25 13.77-34.48 33.27-34.48 22.78 0 33.26 16.69 33.26 36.07 0 1.46 0 3.16-.12 4.75h-44.13c1.83 7.19 7.07 10.84 14.26 10.84 5.48 0 9.87-2.07 14.62-6.7l12.79 10.6c-6.33 8-15.47 13.41-28.63 13.41-20.72 0-35.34-13.77-35.34-34.25" fill="#fff"/></g><path fill="#fff" d="M361.98 97.21h23.15v65.92h-23.15zm28.02 0h24.37l12.67 38.51 12.67-38.51h24.01l-26.32 66.41h-21.08L390 97.21z"/><g clip-path="url(#clip-path)"><path d="M506.22 124.75c-.86-7.31-5.12-11.94-11.46-11.94-6.09 0-10.23 4.75-11.45 11.94zm-44.85 5.72v-.24c0-19.25 13.77-34.48 33.27-34.48 22.79 0 33.27 16.69 33.27 36.07 0 1.46 0 3.16-.12 4.75h-44.12c1.83 7.19 7.07 10.84 14.26 10.84 5.48 0 9.87-2.07 14.62-6.7l12.8 10.6c-6.34 8-15.48 13.41-28.64 13.41-20.71 0-35.34-13.77-35.34-34.25" fill="#fff"/></g></svg>