<?xml version="1.0" encoding="utf-8"?>
<!-- Generator: Adobe Illustrator 25.2.1, SVG Export Plug-In . SVG Version: 6.00 Build 0)  -->
<svg version="1.1" id="Layer_2" xmlns="http://www.w3.org/2000/svg" xmlns:xlink="http://www.w3.org/1999/xlink" x="0px" y="0px"
	 viewBox="0 0 462.05 462.05" style="enable-background:new 0 0 462.05 462.05;" xml:space="preserve">
<style type="text/css">
	.st0{fill:#323E48;}
	.st1{fill:none;}
	.st2{fill:#9ccf4c;}
	.st3{fill:#FFFFFF;}
</style>
<circle class="st0" cx="229.43" cy="227.44" r="221.39"/>
<g>
	<path class="st1" d="M48.28,153.83c-10.34,24.44-15.58,50.41-15.58,77.19c0,26.78,5.24,52.75,15.58,77.19
		c9.99,23.61,24.29,44.83,42.51,63.04c18.22,18.22,39.43,32.52,63.04,42.51c24.44,10.34,50.41,15.58,77.19,15.58
		c26.78,0,52.75-5.24,77.19-15.58c23.61-9.99,44.83-24.29,63.04-42.51c18.22-18.22,32.52-39.43,42.51-63.04
		c10.34-24.44,15.58-50.41,15.58-77.19c0-26.78-5.24-52.75-15.58-77.19c-4.51-10.66-9.91-20.83-16.14-30.46H64.42
		C58.19,133,52.79,143.17,48.28,153.83z"/>
	<path class="st2" d="M231.27,114.69c-43.38,0-82.23-19.39-108.36-49.96c-11.52,7.5-22.26,16.2-32.11,26.06
		c-9.99,9.99-18.8,20.89-26.37,32.59h333.21c-7.57-11.7-16.38-22.6-26.37-32.59c-9.77-9.77-20.4-18.4-31.8-25.85
		C313.32,95.39,274.55,114.69,231.27,114.69z"/>
	<path class="st3" d="M231.02,32.7c-26.78,0-52.75,5.24-77.19,15.58c-10.84,4.58-21.16,10.09-30.93,16.45
		c26.14,30.58,64.99,49.96,108.36,49.96c43.28,0,82.05-19.3,108.19-49.76c-9.86-6.45-20.29-12.02-31.24-16.65
		C283.77,37.94,257.8,32.7,231.02,32.7z"/>
	<path class="st0" d="M113.75,52.81c2.84,4.13,5.9,8.11,9.15,11.91c9.77-6.36,20.09-11.87,30.93-16.45
		c24.44-10.34,50.41-15.58,77.19-15.58c26.78,0,52.75,5.24,77.19,15.58c10.95,4.63,21.38,10.21,31.24,16.65
		c3.26-3.8,6.32-7.77,9.17-11.9c-33.72-22.32-74.14-35.34-117.6-35.34C187.7,17.7,147.4,30.63,113.75,52.81z"/>
</g>
<g>
	<polygon class="st1" points="169.7,145.69 291.53,145.69 284.48,132.97 176.74,132.97 	"/>
	<polygon class="st1" points="157.63,167.46 303.59,167.46 295.3,152.49 165.92,152.49 	"/>
	<polygon class="st1" points="143.01,193.83 318.21,193.83 307.88,175.19 153.35,175.19 	"/>
	<polygon class="st1" points="125.9,224.72 335.33,224.72 323.38,203.16 137.85,203.16 	"/>
	<polygon class="st1" points="105.48,261.55 355.74,261.55 342.02,236.79 119.21,236.79 	"/>
	<polygon class="st1" points="82.92,302.27 378.31,302.27 363.42,275.42 97.8,275.42 	"/>
	<polygon class="st3" points="82.92,302.27 72.97,320.22 388.25,320.22 378.31,302.27 	"/>
	<polygon class="st3" points="97.8,275.42 363.42,275.42 355.74,261.55 105.48,261.55 	"/>
	<polygon class="st3" points="119.21,236.79 342.02,236.79 335.33,224.72 125.9,224.72 	"/>
	<polygon class="st3" points="137.85,203.16 323.38,203.16 318.21,193.83 143.01,193.83 	"/>
	<polygon class="st3" points="153.35,175.19 307.88,175.19 303.59,167.46 157.63,167.46 	"/>
	<polygon class="st3" points="165.92,152.49 295.3,152.49 291.53,145.69 169.7,145.69 	"/>
	<polygon class="st3" points="284.48,132.97 281.99,128.48 179.23,128.48 176.74,132.97 	"/>
</g>
<polygon class="st2" points="98.96,375.95 136.13,375.95 199.91,122.9 192.38,122.9 "/>
<g>
	<path class="st1" d="M135.48,378.62l-5.8,22.92c7.73,4.6,15.79,8.69,24.15,12.23c24.44,10.34,50.41,15.58,77.19,15.58
		c26.78,0,52.75-5.24,77.19-15.58c8.72-3.69,17.1-7.97,25.13-12.81l-5.65-22.34H135.48z"/>
	<polygon class="st3" points="327.7,378.62 321.23,353.09 141.94,353.09 135.48,378.62 	"/>
	<path class="st3" d="M371.26,371.26c5.76-5.76,11.13-11.83,16.1-18.17h-31.03l8.92,23.92
		C367.29,375.13,369.29,373.22,371.26,371.26z"/>
	<path class="st3" d="M387.8,378.62v-2.95c-0.92,0.99-1.83,1.98-2.77,2.95H387.8z"/>
	<path class="st3" d="M97.63,377.79l9.21-24.7H74.69c4.97,6.34,10.34,12.41,16.1,18.17C93.02,373.5,95.31,375.67,97.63,377.79z"/>
	<path class="st3" d="M65.88,378.62h11.13c-3.87-4.04-7.58-8.23-11.13-12.56V378.62z"/>
	<path class="st2" d="M97.32,378.62h1.25c-0.31-0.28-0.63-0.55-0.94-0.84L97.32,378.62z"/>
	<g>
		<path class="st2" d="M106.84,353.09l-9.21,24.7c0.31,0.28,0.62,0.56,0.94,0.84c9.65,8.68,20.05,16.33,31.11,22.92l5.8-22.92
			l6.46-25.54l58.19-229.96h-7.54L106.84,353.09z"/>
		<path class="st2" d="M356.33,353.09l-85.76-229.96h-7.54l58.19,229.96l6.46,25.54l5.65,22.34c10.7-6.45,20.77-13.92,30.13-22.34
			c0.59-0.53,1.19-1.07,1.77-1.62L356.33,353.09z"/>
	</g>
	<path class="st2" d="M363.48,378.62h2.38l-0.6-1.62C364.67,377.55,364.07,378.09,363.48,378.62z"/>
</g>
<path class="st0" d="M231.02,32.7c26.78,0,52.75,5.24,77.19,15.58c23.61,9.99,44.83,24.29,63.04,42.51
	c18.22,18.22,32.52,39.43,42.51,63.04c10.34,24.44,15.58,50.41,15.58,77.19s-5.24,52.75-15.58,77.19
	c-9.99,23.61-24.29,44.83-42.51,63.04c-18.22,18.22-39.43,32.52-63.04,42.51c-24.44,10.34-50.41,15.58-77.19,15.58
	s-52.75-5.24-77.19-15.58c-23.61-9.99-44.83-24.29-63.04-42.51c-18.22-18.22-32.52-39.43-42.51-63.04
	C37.94,283.77,32.7,257.8,32.7,231.02s5.24-52.75,15.58-77.19c9.99-23.61,24.29-44.83,42.51-63.04
	c18.22-18.22,39.43-32.52,63.04-42.51C178.27,37.94,204.24,32.7,231.02,32.7 M231.02,17.7C113.21,17.7,17.7,113.21,17.7,231.02
	s95.51,213.32,213.32,213.32s213.32-95.51,213.32-213.32S348.84,17.7,231.02,17.7L231.02,17.7z"/>
<path class="st2" d="M231.02,17.7c117.82,0,213.32,95.51,213.32,213.32s-95.51,213.32-213.32,213.32S17.7,348.84,17.7,231.02
	S113.21,17.7,231.02,17.7 M231.02,2.7c-30.82,0-60.72,6.04-88.88,17.95c-27.19,11.5-51.61,27.96-72.57,48.93
	c-20.96,20.96-37.42,45.38-48.93,72.57C8.74,170.3,2.7,200.21,2.7,231.02s6.04,60.72,17.95,88.88
	c11.5,27.19,27.96,51.61,48.93,72.57c20.96,20.96,45.38,37.42,72.57,48.93c28.16,11.91,58.06,17.95,88.88,17.95
	s60.72-6.04,88.88-17.95c27.19-11.5,51.61-27.96,72.57-48.93c20.96-20.96,37.42-45.38,48.93-72.57
	c11.91-28.16,17.95-58.06,17.95-88.88s-6.04-60.72-17.95-88.88c-11.5-27.19-27.96-51.61-48.93-72.57
	c-20.96-20.96-45.38-37.42-72.57-48.93C291.74,8.74,261.84,2.7,231.02,2.7L231.02,2.7z"/>
</svg>
