<?xml version="1.0" encoding="UTF-8"?>
<svg width="146px" height="146px" viewBox="0 0 146 146" version="1.1" xmlns="http://www.w3.org/2000/svg" xmlns:xlink="http://www.w3.org/1999/xlink">
    <!-- Generator: Sketch 53.2 (72643) - https://sketchapp.com -->
    <title>web-candy-flat2</title>
    <desc>Created with Sketch.</desc>
    <g id="Page-1" stroke="none" stroke-width="1" fill="none" fill-rule="evenodd">
        <g id="web-candy-flat2">
            <g id="Group" transform="translate(9.000000, 10.000000)">
                <path d="M126.440777,0.25203252 L129.091262,0.25203252 L129.091262,46.197561 C130.160291,53.7923089 130.160291,61.5528943 129.091262,69.479065 L129.091262,122.336585 L86.9548544,122.336585 C85.0977476,122.900886 83.2360971,123.404951 81.3699029,123.84878 L46.8504854,123.84878 C41.7724078,122.960618 36.9427184,121.36626 32.361165,119.066211 C34.0801942,120.481374 36.0910291,121.474886 38.3941748,122.046496 C38.8020971,122.146049 39.2100194,122.242325 39.6184466,122.336333 L38.2490291,122.336333 C40.3121165,122.967171 42.4219029,123.471236 44.5786408,123.848528 L39.6184466,123.848528 C39.206233,123.756033 38.7980583,123.659504 38.3941748,123.558691 C37.2070097,123.262301 36.0986019,122.855016 35.0684466,122.336333 L2.65048544,122.336333 L2.65048544,73.6940569 C2.75019417,73.9211382 2.84687379,74.1502358 2.9407767,74.3808455 C2.91452427,74.9874878 2.88928155,75.5943821 2.86504854,76.2017805 C2.8367767,76.9286423 2.83046602,77.6489512 2.8461165,78.3629593 C2.85040777,78.1474715 2.85671845,77.9309756 2.86504854,77.7139756 C2.89029126,77.1093496 2.91553398,76.5042195 2.9407767,75.8995935 C4.5815534,79.8817073 5.5324466,84.3928374 5.79320388,89.4334878 C5.85429126,90.6523171 5.99085437,91.8391382 6.20339806,92.9934472 C6.49545631,93.6928374 6.80467961,94.3818943 7.13106796,95.0601138 C8.21246602,98.2379919 9.93326214,101.12578 12.2932039,103.723732 C16.3964078,108.245195 20.7780388,111.977293 25.4383495,114.920276 C21.6198835,112.244699 17.9952816,109.016415 14.5650485,105.235927 C10.5428738,100.808724 8.37629126,95.5409919 8.06504854,89.4334878 C7.78737864,84.0989675 6.73980583,79.3564715 4.9223301,75.2065041 L4.9223301,30.395122 C5.35978641,29.9583496 5.61221359,29.3575041 5.67961165,28.5930894 L7.95145631,27.0808943 L7.95145631,23.6784553 L6.05825243,26.7028455 C10.4926408,18.5621951 17.4300971,12.6351463 26.8708738,8.92195122 C27.1316311,8.81282114 27.3883495,8.69512195 27.6407767,8.56910569 C30.282932,6.83839837 33.0091456,5.29696748 35.8194175,3.94430894 C38.1417476,3.22173171 40.476699,2.56241463 42.8242718,1.96585366 C43.0936117,1.89856098 43.362699,1.83152033 43.6320388,1.76422764 L91.2145631,1.76422764 C94.0755728,2.46160163 96.9153786,3.29734146 99.7339806,4.27195122 C109.595553,7.68270732 116.242718,13.8912764 119.675728,22.8971545 C123.12565,31.953439 125.957126,41.1359919 128.169903,50.4443089 C128.573029,52.1349431 128.799961,53.8172602 128.851456,55.4912602 C128.921379,53.3189919 128.694447,51.1326098 128.169903,48.9321138 C125.956874,39.6237967 123.12565,30.4412439 119.675728,21.3849593 C116.242718,12.3790813 109.595553,6.1705122 99.7339806,2.7597561 C96.9138641,1.78842276 94.0717864,0.952430894 91.2085049,0.25203252 L126.440777,0.25203252 Z M127.084466,70.6321138 C126.984757,69.9349919 126.92165,69.2398862 126.895146,68.5465447 C126.849204,69.7396667 126.912311,70.9390894 127.084466,72.1443089 C127.351534,74.0033008 127.509301,75.8748943 127.557767,77.7583333 C127.564583,77.7487561 127.571146,77.7381707 127.576699,77.7268293 C127.585282,75.3410894 127.420951,72.9760163 127.084466,70.6321138 Z M40.8300971,0.25203252 L43.6320388,0.25203252 C43.3621942,0.318065041 43.0928544,0.385357724 42.8242718,0.453658537 C40.480233,1.04870732 38.1452816,1.70827642 35.8194175,2.43211382 C37.460699,1.63921951 39.1310097,0.912609756 40.8300971,0.25203252 Z M2.65048544,0.25203252 L38.5519417,0.25203252 C35.4079612,1.47212195 32.3599029,2.91702439 29.407767,4.58699187 C25.0024078,6.18714634 20.626835,8.01866667 16.2815534,10.0813008 L19.4495146,8.8148374 C19.0660777,9.1651626 18.5150291,9.46130081 17.7961165,9.70325203 L17.4174757,10.8373984 L11.7378641,13.4711382 C10.0044466,15.0254228 8.54895146,16.8778618 7.37087379,19.0284553 C6.93165049,19.8306748 6.51085437,20.6371789 6.10873786,21.4479675 C5.27067961,22.6390732 4.49673786,23.8866341 3.78640777,25.1906504 L5.67961165,22.1662602 L5.67961165,22.3363821 C4.96776699,23.8291707 4.31978641,25.3373333 3.73592233,26.8603659 L3.40776699,27.0808943 C3.34415534,27.8445528 3.09172816,28.4431301 2.65048544,28.876626 L2.65048544,0.25203252 Z M25.368932,8.56910569 C25.1165049,8.69512195 24.8597864,8.81282114 24.5990291,8.92195122 C16.6728155,12.0388374 10.509301,16.7183252 6.10873786,22.9601626 C6.51262136,22.1453415 6.93341748,21.3385854 7.37087379,20.5406504 C8.54895146,18.3900569 10.0044466,16.5376179 11.7378641,14.9833333 L17.4174757,12.3495935 L17.7961165,11.2154472 C18.5112427,10.9717317 19.0625437,10.6778618 19.4495146,10.3333333 L16.2815534,11.5934959 C20.623301,9.52682927 24.9986214,7.69530894 29.407767,6.09918699 C28.0446602,6.87217073 26.698466,7.69530894 25.368932,8.56910569 Z M5.67961165,27.0808943 L3.73592233,28.3788618 C4.31650485,26.8497805 4.96448544,25.3418699 5.67961165,23.854878 L5.67961165,27.0808943 Z" id="Shape" fill="#222222"></path>
                <path d="M2.65048544,122.336585 L0,122.336585 L0,68.8426829 M91.2145631,1.76422764 L43.6320388,1.76422764 M91.2082524,0.25203252 L126.440777,0.25203252 M40.8300971,0.25203252 L43.6320388,0.25203252 M38.5519417,0.25203252 L2.65048544,0.25203252 M0,38.4853659 L0,0.25203252 L2.65048544,0.25203252 M2.27184466,39.997561 L2.27184466,68.8426829" id="Shape" stroke="#000000" stroke-linecap="round" stroke-linejoin="round"></path>
            </g>
            <path d="M100.226754,45.2598738 C100.630487,44.191655 101.357964,43.5186241 102.409437,43.2410336 C106.614822,42.155907 111.438676,41.756429 116.880747,42.0423472 C117.915313,42.0928183 118.912029,42.2485213 119.870895,42.509204 C123.462354,43.4512454 124.551929,45.8655259 123.13861,49.7517933 C122.171417,52.3931933 121.199682,55.0303033 120.224162,57.6631233 L128.790875,57.6631233 C130.843101,57.3098263 131.7515,56.2120819 131.516073,54.3698902 C128.782548,45.7057852 123.7485,37.9289603 116.41393,31.0396681 C104.739482,20.0957877 90.6423816,14.6239737 74.1228828,14.6239737 C57.6119634,14.6239737 43.5148635,20.0957877 31.8318355,31.0396681 C20.1571345,42.0004563 14.3199101,55.2236073 14.3199101,70.7098781 C14.3199101,86.2044767 20.1571345,99.4238424 31.8318355,110.36747 C43.5148635,121.328259 57.6119634,126.8084 74.1228828,126.8084 C90.6423816,126.8084 104.739482,121.328006 116.414183,110.36747 C121.881234,105.244663 126.070218,99.6214363 128.980377,93.4975369 C129.476716,91.7812704 128.774473,90.6416351 126.873142,90.077874 L108.137401,90.077874 C106.228247,95.3606741 104.398832,100.685365 102.649153,106.052199 C101.976433,108.079367 100.723094,109.378996 98.8896405,109.950832 C96.416775,110.707897 93.5275596,111.073812 90.2217421,111.048829 C87.9845558,111.023341 86.3360629,110.514593 85.2760111,109.522081 C83.4339786,107.789159 82.0504355,105.551779 81.1251296,102.809185 C79.0559972,96.7693199 76.8188109,90.8601746 74.413066,85.0812445 C73.8662599,86.6375179 73.2942205,88.1599758 72.6972001,89.6491228 C70.3421742,95.4951793 68.0333253,101.379341 65.7706533,107.301104 C65.2071932,108.781671 64.1557207,109.681822 62.6164881,110.001303 C58.9155168,110.750041 55.0000622,110.888836 50.8703768,110.417689 C50.0545835,110.325075 49.4616004,109.992723 49.0914276,109.420887 C46.5345351,105.517712 44.439917,101.135314 42.8083305,96.2731899 C40.7644314,90.2333247 38.6405427,84.2315651 36.4369167,78.2674064 C34.2163844,72.2865923 31.9832354,66.3014882 29.7374698,60.3123464 C28.6272036,57.3514649 27.4202938,54.394621 26.1164881,51.4420672 C25.3090218,49.6167833 25.1828552,47.5641276 25.7379882,45.2846046 C26.1081611,43.7621467 27.1258209,42.8998496 28.7912202,42.6979656 C32.5931248,42.1932556 36.6092603,41.8821018 40.8401314,41.764252 C43.6998237,41.6885455 45.7941894,42.2689621 47.1232285,43.5055017 C48.7129278,44.9860686 49.9031835,46.9292023 50.6937435,49.3349028 C52.7124093,55.3997511 54.815102,61.4312886 57.002074,67.4287581 C57.3719945,66.5621709 57.7255133,65.6917985 58.0618735,64.8168836 C60.3328725,58.8696327 62.5617318,52.9561974 64.7487038,47.0763253 C65.3290702,45.4864886 66.2248531,44.2918399 67.4360525,43.4928839 C69.3202247,42.2311088 71.9737608,41.608549 75.3971656,41.6254567 C78.2654373,41.6421122 80.3936156,42.2394365 81.7814483,43.4171774 C83.4299412,44.8303656 84.674701,46.7439737 85.51598,49.1582543 C87.559879,55.1390684 89.7425614,61.0651214 92.064027,66.9366658 C92.5686934,65.7084539 93.0521638,64.4678766 93.514943,63.2144292 C95.718569,57.2088843 97.9557553,51.2237801 100.226754,45.2598738 Z M140.473903,5.53919281 C144.157968,9.22357618 146,13.6733523 146,18.8887737 L146,127.111226 C146,132.326648 144.157715,136.780714 140.473903,140.473425 C136.781258,144.158061 132.327829,146 127.112859,146 L18.8871414,146 C13.6721708,146 9.22277912,144.157808 5.53871414,140.473425 C1.84632216,136.780714 0,132.326648 0,127.111226 L0,18.8887737 C0,13.6733523 1.84632216,9.22357618 5.53871414,5.53919281 C9.22277912,1.84648172 13.6721708,0 18.8871414,0 L127.112859,0 C132.327829,-8.96545151e-16 136.781258,1.84648172 140.473903,5.53919281 Z" id="Shape" fill="#FF9A00"></path>
        </g>
    </g>
</svg>