<svg xmlns="http://www.w3.org/2000/svg" xmlns:xlink="http://www.w3.org/1999/xlink" version="1.1" class="marks" width="544" height="297" viewBox="0 0 544 297"><rect width="544" height="297" fill="white"/><g fill="none" stroke-miterlimit="10" transform="translate(39,45)"><g class="mark-group role-frame root" role="graphics-object" aria-roledescription="group mark container"><g transform="translate(0,0)"><path class="background" aria-hidden="true" d="M0.5,0.5h500v200h-500Z" stroke="#ddd"/><g><g class="mark-group role-axis" aria-hidden="true"><g transform="translate(0.5,200.5)"><path class="background" aria-hidden="true" d="M0,0h0v0h0Z" pointer-events="none"/><g><g class="mark-rule role-axis-grid" pointer-events="none"><line transform="translate(50,-200)" x2="0" y2="200" stroke="#ddd" stroke-width="1" opacity="1"/><line transform="translate(150,-200)" x2="0" y2="200" stroke="#ddd" stroke-width="1" opacity="1"/><line transform="translate(250,-200)" x2="0" y2="200" stroke="#ddd" stroke-width="1" opacity="1"/><line transform="translate(350,-200)" x2="0" y2="200" stroke="#ddd" stroke-width="1" opacity="1"/><line transform="translate(450,-200)" x2="0" y2="200" stroke="#ddd" stroke-width="1" opacity="1"/></g></g><path class="foreground" aria-hidden="true" d="" pointer-events="none" display="none"/></g></g><g class="mark-group role-axis" aria-hidden="true"><g transform="translate(0.5,0.5)"><path class="background" aria-hidden="true" d="M0,0h0v0h0Z" pointer-events="none"/><g><g class="mark-rule role-axis-grid" pointer-events="none"><line transform="translate(0,200)" x2="500" y2="0" stroke="#ddd" stroke-width="1" opacity="1"/><line transform="translate(0,150)" x2="500" y2="0" stroke="#ddd" stroke-width="1" opacity="1"/><line transform="translate(0,100)" x2="500" y2="0" stroke="#ddd" stroke-width="1" opacity="1"/><line transform="translate(0,50)" x2="500" y2="0" stroke="#ddd" stroke-width="1" opacity="1"/><line transform="translate(0,0)" x2="500" y2="0" stroke="#ddd" stroke-width="1" opacity="1"/></g></g><path class="foreground" aria-hidden="true" d="" pointer-events="none" display="none"/></g></g><g class="mark-group role-axis" role="graphics-symbol" aria-roledescription="axis" aria-label="X-axis titled 'Kodak’s Share Price' for a discrete scale with 5 values: 1990, 1995, 2000, 2005, 2010"><g transform="translate(0.5,200.5)"><path class="background" aria-hidden="true" d="M0,0h0v0h0Z" pointer-events="none"/><g><g class="mark-rule role-axis-tick" pointer-events="none"><line transform="translate(50,0)" x2="0" y2="5" stroke="#888" stroke-width="1" opacity="1"/><line transform="translate(150,0)" x2="0" y2="5" stroke="#888" stroke-width="1" opacity="1"/><line transform="translate(250,0)" x2="0" y2="5" stroke="#888" stroke-width="1" opacity="1"/><line transform="translate(350,0)" x2="0" y2="5" stroke="#888" stroke-width="1" opacity="1"/><line transform="translate(450,0)" x2="0" y2="5" stroke="#888" stroke-width="1" opacity="1"/></g><g class="mark-text role-axis-label" pointer-events="none"><text text-anchor="middle" transform="translate(50,15)" font-family="sans-serif" font-size="10px" font-weight="bold" fill="#000" opacity="1">1990</text><text text-anchor="middle" transform="translate(150,15)" font-family="sans-serif" font-size="10px" font-weight="bold" fill="#000" opacity="1">1995</text><text text-anchor="middle" transform="translate(250,15)" font-family="sans-serif" font-size="10px" font-weight="bold" fill="#000" opacity="1">2000</text><text text-anchor="middle" transform="translate(350,15)" font-family="sans-serif" font-size="10px" font-weight="bold" fill="#000" opacity="1">2005</text><text text-anchor="middle" transform="translate(450,15)" font-family="sans-serif" font-size="10px" font-weight="bold" fill="#000" opacity="1">2010</text></g><g class="mark-rule role-axis-domain" pointer-events="none"><line transform="translate(0,0)" x2="500" y2="0" stroke="#888" stroke-width="1" opacity="1"/></g><g class="mark-text role-axis-title" pointer-events="none"><text text-anchor="middle" transform="translate(250,44)" font-family="sans-serif" font-size="15px" font-weight="bold" fill="#000" opacity="1">Kodak’s Share Price</text></g></g><path class="foreground" aria-hidden="true" d="" pointer-events="none" display="none"/></g></g><g class="mark-group role-axis" role="graphics-symbol" aria-roledescription="axis" aria-label="Y-axis titled 'Price of Coffee ($/cup)' for a linear scale with values from 0 to 20"><g transform="translate(0.5,0.5)"><path class="background" aria-hidden="true" d="M0,0h0v0h0Z" pointer-events="none"/><g><g class="mark-rule role-axis-tick" pointer-events="none"><line transform="translate(0,200)" x2="-5" y2="0" stroke="#888" stroke-width="1" opacity="1"/><line transform="translate(0,150)" x2="-5" y2="0" stroke="#888" stroke-width="1" opacity="1"/><line transform="translate(0,100)" x2="-5" y2="0" stroke="#888" stroke-width="1" opacity="1"/><line transform="translate(0,50)" x2="-5" y2="0" stroke="#888" stroke-width="1" opacity="1"/><line transform="translate(0,0)" x2="-5" y2="0" stroke="#888" stroke-width="1" opacity="1"/></g><g class="mark-text role-axis-label" pointer-events="none"><text text-anchor="end" transform="translate(-7,203)" font-family="sans-serif" font-size="10px" fill="#000" opacity="1">0</text><text text-anchor="end" transform="translate(-7,153)" font-family="sans-serif" font-size="10px" fill="#000" opacity="1">5</text><text text-anchor="end" transform="translate(-7,103)" font-family="sans-serif" font-size="10px" fill="#000" opacity="1">10</text><text text-anchor="end" transform="translate(-7,53)" font-family="sans-serif" font-size="10px" fill="#000" opacity="1">15</text><text text-anchor="end" transform="translate(-7,3)" font-family="sans-serif" font-size="10px" fill="#000" opacity="1">20</text></g><g class="mark-rule role-axis-domain" pointer-events="none"><line transform="translate(0,200)" x2="0" y2="-200" stroke="#888" stroke-width="1" opacity="1"/></g><g class="mark-text role-axis-title" pointer-events="none"><text text-anchor="middle" transform="translate(-22.123046875,100) rotate(-90) translate(0,-2)" font-family="sans-serif" font-size="11px" font-weight="bold" fill="#000" opacity="1">Price of Coffee ($/cup)</text></g></g><path class="foreground" aria-hidden="true" d="" pointer-events="none" display="none"/></g></g><g class="mark-group role-scope layer_0_pathgroup" role="graphics-object" aria-roledescription="group mark container"><g transform="translate(0,0)"><path class="background" aria-hidden="true" d="M0,0h500v200h-500Z"/><g><g class="mark-line role-mark layer_0_marks" role="graphics-object" aria-roledescription="line mark container"><path aria-label="Kodak’s Share Price: 1990; Price of Coffee ($/cup): 4; type: Cost Per Person" role="graphics-symbol" aria-roledescription="line mark" d="M50,160L150,120L250,80L350,39.99999999999999L450,0" stroke="#DC5A15" stroke-width="3"/></g></g><path class="foreground" aria-hidden="true" d="" display="none"/></g><g transform="translate(0,0)"><path class="background" aria-hidden="true" d="M0,0h500v200h-500Z"/><g><g class="mark-line role-mark layer_0_marks" role="graphics-object" aria-roledescription="line mark container"><path aria-label="Kodak’s Share Price: 1990; Price of Coffee ($/cup): 5; type: Total Cost" role="graphics-symbol" aria-roledescription="line mark" d="M50,150L150,160L250,170L350,180L450,190" stroke="#E57D24" stroke-width="3"/></g></g><path class="foreground" aria-hidden="true" d="" display="none"/></g><g transform="translate(0,0)"><path class="background" aria-hidden="true" d="M0,0h500v200h-500Z"/><g><g class="mark-line role-mark layer_0_marks" role="graphics-object" aria-roledescription="line mark container"><path aria-label="Kodak’s Share Price: 1990; Price of Coffee ($/cup): 18; type: Price" role="graphics-symbol" aria-roledescription="line mark" d="M50,19.999999999999996L150,50L250,80L350,110.00000000000001L450,140" stroke="#F7C116" stroke-width="3"/></g></g><path class="foreground" aria-hidden="true" d="" display="none"/></g></g><g class="mark-symbol role-mark layer_1_marks" role="graphics-object" aria-roledescription="symbol mark container"><path aria-label="year: 2000; population: 12" role="graphics-symbol" aria-roledescription="point" transform="translate(250,80)" d="M5,0A5,5,0,1,1,-5,0A5,5,0,1,1,5,0" fill="black" stroke-width="2" opacity="0.7"/><path aria-label="year: 2000; population: 12" role="graphics-symbol" aria-roledescription="point" transform="translate(250,80)" d="M5,0A5,5,0,1,1,-5,0A5,5,0,1,1,5,0" fill="black" stroke-width="2" opacity="0.7"/></g><g class="mark-symbol role-mark layer_2_marks" role="graphics-object" aria-roledescription="symbol mark container"><path aria-label="year: 2000; population: 12" role="graphics-symbol" aria-roledescription="point" transform="translate(300,80) rotate(270)" d="M-2.0203050891044216,14.142135623730951L2.0203050891044216,14.142135623730951L2.0203050891044216,-1.7677669529663689L5.656854249492381,-1.7677669529663689L0,-14.142135623730951L-5.656854249492381,-1.7677669529663689L-2.0203050891044216,-1.7677669529663689Z" fill="black" stroke-width="2" opacity="0.7"/><path aria-label="year: 2000; population: 12" role="graphics-symbol" aria-roledescription="point" transform="translate(300,80) rotate(270)" d="M-2.0203050891044216,14.142135623730951L2.0203050891044216,14.142135623730951L2.0203050891044216,-1.7677669529663689L5.656854249492381,-1.7677669529663689L0,-14.142135623730951L-5.656854249492381,-1.7677669529663689L-2.0203050891044216,-1.7677669529663689Z" fill="black" stroke-width="2" opacity="0.7"/></g><g class="mark-text role-mark layer_3_marks" role="graphics-object" aria-roledescription="text mark container"><text aria-label="year: 2000; population: 12" role="graphics-symbol" aria-roledescription="text mark" text-anchor="middle" transform="translate(350,83)" font-family="sans-serif" font-size="11px" fill="black">equilibrium</text><text aria-label="year: 2000; population: 12" role="graphics-symbol" aria-roledescription="text mark" text-anchor="middle" transform="translate(350,83)" font-family="sans-serif" font-size="11px" fill="black">equilibrium</text></g><g class="mark-group role-legend" role="graphics-symbol" aria-roledescription="legend" aria-label="Symbol legend for stroke color with 3 values: Cost Per Person, Price, Total Cost"><g transform="translate(120,-40)"><path class="background" aria-hidden="true" d="M0,0h241v12h-241Z" pointer-events="none"/><g><g class="mark-group role-legend-entry"><g transform="translate(0,0)"><path class="background" aria-hidden="true" d="M0,0h0v0h0Z" pointer-events="none"/><g><g class="mark-group role-scope" role="graphics-object" aria-roledescription="group mark container"><g transform="translate(0,0)"><path class="background" aria-hidden="true" d="M0,0h104.037109375v12h-104.037109375Z" pointer-events="none" opacity="1"/><g><g class="mark-symbol role-legend-symbol" pointer-events="none"><path transform="translate(6,6)" d="M-5,0L5,0" stroke="#DC5A15" stroke-width="1.5" opacity="1"/></g><g class="mark-text role-legend-label" pointer-events="none"><text text-anchor="start" transform="translate(16,10)" font-family="sans-serif" font-size="12px" fill="#000" opacity="1">Cost Per Person</text></g></g><path class="foreground" aria-hidden="true" d="" pointer-events="none" display="none"/></g><g transform="translate(116,0)"><path class="background" aria-hidden="true" d="M0,0h43.33984375v12h-43.33984375Z" pointer-events="none" opacity="1"/><g><g class="mark-symbol role-legend-symbol" pointer-events="none"><path transform="translate(6,6)" d="M-5,0L5,0" stroke="#F7C116" stroke-width="1.5" opacity="1"/></g><g class="mark-text role-legend-label" pointer-events="none"><text text-anchor="start" transform="translate(16,10)" font-family="sans-serif" font-size="12px" fill="#000" opacity="1">Price</text></g></g><path class="foreground" aria-hidden="true" d="" pointer-events="none" display="none"/></g><g transform="translate(171,0)"><path class="background" aria-hidden="true" d="M0,0h69.35546875v12h-69.35546875Z" pointer-events="none" opacity="1"/><g><g class="mark-symbol role-legend-symbol" pointer-events="none"><path transform="translate(6,6)" d="M-5,0L5,0" stroke="#E57D24" stroke-width="1.5" opacity="1"/></g><g class="mark-text role-legend-label" pointer-events="none"><text text-anchor="start" transform="translate(16,10)" font-family="sans-serif" font-size="12px" fill="#000" opacity="1">Total Cost</text></g></g><path class="foreground" aria-hidden="true" d="" pointer-events="none" display="none"/></g></g></g><path class="foreground" aria-hidden="true" d="" pointer-events="none" display="none"/></g></g></g><path class="foreground" aria-hidden="true" d="" pointer-events="none" display="none"/></g></g></g><path class="foreground" aria-hidden="true" d="" display="none"/></g></g></g></svg>